HIERARCHY
ROOT Hips
{
	OFFSET -0.001795 -0.223333 0.028219
	CHANNELS 6 Xposition Yposition Zposition Zrotation Yrotation Xrotation 
	JOINT LeftUpLeg
	{
		OFFSET 0.069520 -0.091406 -0.006815
		CHANNELS 3 Zrotation Yrotation Xrotation
		JOINT LeftLeg
		{
			OFFSET 0.034277 -0.375199 -0.004496
			CHANNELS 3 Zrotation Yrotation Xrotation
			JOINT LeftFoot
			{
				OFFSET -0.013596 -0.397961 -0.043693
				CHANNELS 3 Zrotation Yrotation Xrotation
				JOINT LeftToe
				{
					OFFSET 0.026358 -0.055791 0.119288
					CHANNELS 3 Zrotation Yrotation Xrotation
					End Site
					{
						OFFSET 0.000000 0.000000 0.000000
					}
				}
			}
		}
	}
	JOINT RightUpLeg
	{
		OFFSET -0.067670 -0.090522 -0.004320
		CHANNELS 3 Zrotation Yrotation Xrotation
		JOINT RightLeg
		{
			OFFSET -0.038290 -0.382569 -0.008850
			CHANNELS 3 Zrotation Yrotation Xrotation
			JOINT RightFoot
			{
				OFFSET 0.015774 -0.398415 -0.042312
				CHANNELS 3 Zrotation Yrotation Xrotation
				JOINT RightToe
				{
					OFFSET -0.025372 -0.048144 0.123348
					CHANNELS 3 Zrotation Yrotation Xrotation
					End Site
					{
						OFFSET 0.000000 0.000000 0.000000
					}
				}
			}
		}
	}
	JOINT Spine
	{
		OFFSET -0.002533 0.108963 -0.026696
		CHANNELS 3 Zrotation Yrotation Xrotation
		JOINT Spine1
		{
			OFFSET 0.005487 0.135180 0.001092
			CHANNELS 3 Zrotation Yrotation Xrotation
			JOINT Spine2
			{
				OFFSET 0.001457 0.052922 0.025425
				CHANNELS 3 Zrotation Yrotation Xrotation
				JOINT Neck
				{
					OFFSET -0.002778 0.213870 -0.042857
					CHANNELS 3 Zrotation Yrotation Xrotation
					JOINT Head
					{
						OFFSET 0.005152 0.064970 0.051349
						CHANNELS 3 Zrotation Yrotation Xrotation
						End Site
						{
							OFFSET 0.000000 0.000000 0.000000
						}
					}
				}
				JOINT LeftShoulder
				{
					OFFSET 0.078845 0.121749 -0.034090
					CHANNELS 3 Zrotation Yrotation Xrotation
					JOINT LeftArm
					{
						OFFSET 0.090977 0.030469 -0.008868
						CHANNELS 3 Zrotation Yrotation Xrotation
						JOINT LeftForeArm
						{
							OFFSET 0.259612 -0.012772 -0.027456
							CHANNELS 3 Zrotation Yrotation Xrotation
							JOINT LeftHand
							{
								OFFSET 0.249234 0.008986 -0.001171
								CHANNELS 3 Zrotation Yrotation Xrotation
								End Site
								{
									OFFSET 0.000000 0.000000 0.000000
								}
							}
						}
					}
				}
				JOINT RightShoulder
				{
					OFFSET -0.081759 0.118833 -0.038615
					CHANNELS 3 Zrotation Yrotation Xrotation
					JOINT RightArm
					{
						OFFSET -0.096012 0.032551 -0.009143
						CHANNELS 3 Zrotation Yrotation Xrotation
						JOINT RightForeArm
						{
							OFFSET -0.253742 -0.013329 -0.021401
							CHANNELS 3 Zrotation Yrotation Xrotation
							JOINT RightHand
							{
								OFFSET -0.255298 0.007772 -0.005559
								CHANNELS 3 Zrotation Yrotation Xrotation
								End Site
								{
									OFFSET 0.000000 0.000000 0.000000
								}
							}
						}
					}
				}
			}
		}
	}
}
MOTION
Frames: 16
Frame Time: 0.050000
-0.251218 0.927716 0.798239 -2.057775 -18.888453 7.195874 5.325814 -0.079666 -3.182597 -6.542543 1.587285 9.576166 8.329584 18.357435 -0.567910 0.000000 0.000000 0.000000 3.374436 2.656396 -18.987166 1.462384 0.958431 16.548750 -1.081339 -4.755352 2.853223 0.000000 0.000000 0.000000 8.086893 -1.592529 17.754763 6.226366 -2.816264 7.056571 -10.290922 -3.049276 3.351185 8.868707 -4.677908 -17.843500 0.000000 0.000000 0.000000 -17.801187 -27.046021 15.642943 -37.631500 -38.788663 7.091088 31.869179 -42.524123 -9.581648 0.000000 0.000000 0.000000 23.200249 7.135671 -1.243868 52.761567 -1.663849 -4.822701 -2.506721 44.237818 -0.853022 0.000000 0.000000 0.000000 
-0.248794 0.927629 0.794631 -2.071745 -18.473319 7.360152 4.781272 -0.139228 -3.693416 -5.591465 1.332609 9.624302 8.284670 18.297297 -0.898529 0.000000 0.000000 0.000000 3.425812 2.691887 -19.179544 1.224263 0.953293 16.113339 -1.183191 -5.088599 3.015335 0.000000 0.000000 0.000000 7.866248 -1.573259 17.670274 6.013989 -2.721704 6.849401 -10.178676 -2.559456 3.278632 9.528719 -4.981304 -17.889895 0.000000 0.000000 0.000000 -18.271925 -26.393865 15.229844 -38.323183 -36.615496 6.498387 29.902277 -42.977150 -8.975855 0.000000 0.000000 0.000000 23.163156 7.255075 -0.945920 52.604926 -1.499193 -4.785229 -2.783109 45.301301 -0.898290 0.000000 0.000000 0.000000 
-0.246214 0.927611 0.790207 -1.971600 -18.037801 7.233796 4.212684 -0.179342 -3.810564 -4.778508 1.098754 9.371699 8.179032 18.102769 -1.206241 0.000000 0.000000 0.000000 3.257545 2.695260 -19.327537 1.205905 0.931073 15.986393 -1.299447 -5.479014 3.235143 0.000000 0.000000 0.000000 7.481317 -1.537666 17.988198 5.775643 -2.622513 6.686519 -9.935623 -1.969683 3.248933 9.975301 -5.105832 -18.294065 0.000000 0.000000 0.000000 -18.406172 -25.912807 14.778861 -38.977090 -34.898866 6.061244 28.433845 -41.975464 -8.244038 0.000000 0.000000 0.000000 23.064024 7.233138 -0.686374 52.486566 -0.989296 -4.621100 -3.089062 46.170058 -0.935642 0.000000 0.000000 0.000000 
-0.243562 0.927152 0.784841 -1.993719 -17.478166 6.744231 3.751394 -0.208507 -3.913445 -3.850839 0.875552 9.760512 8.040067 17.851220 -1.742540 0.000000 0.000000 0.000000 3.289343 2.692696 -19.313374 1.136325 0.954366 16.266047 -1.500427 -6.008200 3.397601 0.000000 0.000000 0.000000 7.171385 -1.508743 18.351366 5.656202 -2.596982 6.613514 -10.014552 -1.472766 3.414472 10.453185 -5.281105 -18.533027 0.000000 0.000000 0.000000 -18.247747 -25.468554 14.246763 -39.214042 -33.328194 5.577782 27.693268 -41.339842 -7.894666 0.000000 0.000000 0.000000 23.412571 7.313959 -0.412104 52.255853 -0.275598 -4.363764 -2.913207 46.515317 -0.731067 0.000000 0.000000 0.000000 
-0.240570 0.926417 0.778450 -1.878616 -16.920488 6.247310 3.249451 -0.261988 -4.430259 -3.106544 0.719911 10.681546 7.906497 17.583242 -2.284364 0.000000 0.000000 0.000000 3.066097 2.705708 -19.542190 1.245184 0.959385 16.775349 -1.732015 -6.594556 3.549711 0.000000 0.000000 0.000000 6.743855 -1.449182 18.448513 5.214836 -2.403465 6.787543 -9.705103 -0.772643 3.290963 10.550803 -5.334418 -18.065844 0.000000 0.000000 0.000000 -19.116617 -25.229504 14.052778 -39.018044 -31.874188 5.047577 27.051078 -40.901238 -7.671329 0.000000 0.000000 0.000000 23.792459 7.481858 -0.036452 52.257465 0.506617 -4.096155 -2.969201 47.103636 -0.612425 0.000000 0.000000 0.000000 
-0.237300 0.926127 0.771083 -1.876693 -16.804947 5.713839 2.869376 -0.305487 -4.905142 -2.535914 0.613896 11.632050 7.924657 17.638085 -2.553410 0.000000 0.000000 0.000000 3.024841 2.881196 -20.477175 1.260283 1.113313 18.501931 -1.772942 -7.035071 4.181169 0.000000 0.000000 0.000000 6.511464 -1.420385 18.956287 4.668935 -2.138621 6.142084 -9.324514 -0.069398 3.940669 10.470561 -5.403167 -17.369663 0.000000 0.000000 0.000000 -19.734333 -24.446780 13.590691 -39.489754 -30.625758 4.653061 27.773772 -41.272971 -8.039602 0.000000 0.000000 0.000000 24.351844 7.594021 0.192867 52.046925 2.012768 -3.541251 -2.315514 45.715522 -0.185051 0.000000 0.000000 0.000000 
-0.233229 0.925477 0.762436 -1.950553 -17.153285 5.577454 3.035142 -0.355735 -6.120683 -2.947130 0.801429 13.075005 8.074650 17.982681 -2.768316 0.000000 0.000000 0.000000 2.532371 3.131458 -22.085843 2.119444 1.097761 20.398136 -1.622753 -7.214742 5.080187 0.000000 0.000000 0.000000 6.336517 -1.388042 19.338614 3.652273 -1.609449 6.029349 -8.645391 0.814543 3.542546 10.516122 -5.437666 -16.896821 0.000000 0.000000 0.000000 -21.300093 -23.226064 13.012434 -39.752283 -29.305460 4.265591 27.635271 -43.038307 -8.435360 0.000000 0.000000 0.000000 24.810075 8.285420 0.792737 52.314903 2.843848 -3.231446 -2.718599 43.359944 -0.202418 0.000000 0.000000 0.000000 
-0.228635 0.925218 0.752296 -1.507731 -16.646789 4.492939 2.538836 -0.403179 -6.435876 -2.888958 0.818656 14.093617 7.876661 17.495326 -2.986454 0.000000 0.000000 0.000000 2.032561 3.303379 -23.397500 2.167005 1.333581 23.219333 -1.792750 -8.132655 6.272967 0.000000 0.000000 0.000000 5.707539 -1.300040 20.416365 3.513056 -1.581240 5.208883 -8.823621 1.836496 4.269774 11.437852 -5.812495 -17.531126 0.000000 0.000000 0.000000 -21.039645 -22.908123 12.370774 -40.938578 -28.971035 4.381397 28.008907 -42.912659 -8.667493 0.000000 0.000000 0.000000 25.115545 8.661656 1.472648 53.052163 3.976337 -3.002272 -2.541714 41.340397 0.082326 0.000000 0.000000 0.000000 
-0.223613 0.925224 0.740328 -1.387900 -15.801047 3.509529 2.150330 -0.455325 -6.865419 -2.371661 0.682002 15.035140 7.603053 16.794678 -3.227183 0.000000 0.000000 0.000000 1.455422 3.365703 -24.356022 2.836197 1.266565 25.144120 -1.979595 -9.119435 7.812954 0.000000 0.000000 0.000000 5.228288 -1.252404 21.505073 3.531663 -1.635246 4.768795 -8.808820 2.634717 4.878195 11.794584 -5.733398 -18.738156 0.000000 0.000000 0.000000 -21.914354 -23.554697 12.552614 -40.378915 -27.964330 3.961936 29.017775 -42.900888 -9.220254 0.000000 0.000000 0.000000 25.017371 8.683086 1.951655 53.011434 4.771853 -2.852893 -0.522491 39.434836 0.941988 0.000000 0.000000 0.000000 
-0.219157 0.925106 0.727297 -1.587791 -15.130421 3.267248 2.482656 -0.500699 -8.150730 -2.478940 0.735936 16.129424 7.374839 16.174215 -3.373955 0.000000 0.000000 0.000000 0.734811 3.652523 -26.721736 4.323808 0.992897 27.957128 -2.102339 -10.240405 10.273341 0.000000 0.000000 0.000000 5.400978 -1.323973 21.892752 2.837092 -1.302852 4.436491 -8.176659 2.407082 4.347845 11.971510 -6.158350 -16.945388 0.000000 0.000000 0.000000 -22.012163 -22.791538 12.086358 -40.499158 -26.643745 3.572579 27.595502 -42.875432 -8.670722 0.000000 0.000000 0.000000 24.761663 9.434978 2.387570 53.343043 4.220685 -3.054754 0.158922 39.186840 1.146640 0.000000 0.000000 0.000000 
-0.216217 0.926331 0.714239 -1.262309 -15.235551 3.405718 1.930681 -0.578072 -8.689214 -2.110020 0.585240 15.075077 7.409040 16.203779 -2.770196 0.000000 0.000000 0.000000 -0.221094 3.869180 -28.891066 5.200315 0.864899 30.012720 -1.581511 -9.599919 11.300946 0.000000 0.000000 0.000000 4.715696 -1.177168 21.471919 2.934426 -1.343783 4.740985 -8.102138 2.853029 4.153119 10.914310 -5.591044 -16.379942 0.000000 0.000000 0.000000 -22.430070 -22.837480 12.049402 -39.862730 -25.092677 3.008091 28.708045 -42.504133 -9.090363 0.000000 0.000000 0.000000 24.770405 10.747376 3.349591 53.183905 4.071049 -3.134954 -1.019917 38.180601 0.780234 0.000000 0.000000 0.000000 
-0.215931 0.926597 0.701975 -1.080947 -13.844483 2.856968 1.561294 -0.646339 -9.161131 -1.209656 0.281789 15.206297 6.924731 14.993669 -2.692364 0.000000 0.000000 0.000000 -0.134384 3.710649 -28.352449 4.940674 0.885103 30.826574 -6.254683 -18.981997 17.748325 0.000000 0.000000 0.000000 4.728293 -1.253151 22.281914 3.356541 -1.591727 3.536383 -8.703860 3.202975 4.442284 11.881650 -6.279699 -15.553016 0.000000 0.000000 0.000000 -22.664169 -22.378657 11.445505 -39.843597 -24.286998 2.810707 26.031975 -41.562671 -7.980216 0.000000 0.000000 0.000000 25.802294 11.129518 3.981383 52.464915 4.807645 -2.907531 -1.251335 36.741318 0.790585 0.000000 0.000000 0.000000 
-0.218085 0.927392 0.689984 -1.115255 -12.955227 2.279674 1.637872 -0.643511 -9.152648 -0.555097 0.057822 14.819776 6.565984 14.110939 -2.317080 0.000000 0.000000 0.000000 0.212584 3.529376 -27.186695 5.469726 0.720955 32.386089 -6.244042 -18.567359 16.260577 0.000000 0.000000 0.000000 4.348527 -1.202610 21.874331 2.838840 -1.357400 3.947733 -7.941087 3.403475 4.463789 11.756113 -6.214021 -15.332381 0.000000 0.000000 0.000000 -22.957248 -21.743363 10.925948 -39.473754 -23.255433 2.477160 23.052980 -40.210803 -6.666970 0.000000 0.000000 0.000000 25.054743 10.921817 4.017404 52.770365 6.294036 -2.342908 -0.702369 36.473578 0.999149 0.000000 0.000000 0.000000 
-0.221499 0.927751 0.678250 -1.236047 -11.689826 1.788597 1.909778 -0.608095 -8.812576 0.080284 -0.166658 13.673982 6.041227 12.873448 -2.153443 0.000000 0.000000 0.000000 0.036543 2.899097 -23.872894 6.127104 0.439681 33.980020 -4.996522 -12.889573 1.346591 0.000000 0.000000 0.000000 3.920602 -1.145070 20.903857 3.263142 -1.584147 2.925448 -7.922055 4.790463 5.355095 12.566020 -6.421863 -16.252408 0.000000 0.000000 0.000000 -23.383981 -20.768398 9.769125 -39.201349 -20.117222 1.557953 18.808180 -40.108200 -5.288445 0.000000 0.000000 0.000000 24.707498 9.104189 3.589327 53.184514 6.525369 -2.542146 1.620470 37.169089 1.964502 0.000000 0.000000 0.000000 
-0.224929 0.928011 0.666330 -1.217094 -11.714097 1.501532 2.012656 -0.596125 -8.789241 0.551650 -0.286509 12.884724 5.986283 12.768319 -1.534616 0.000000 0.000000 0.000000 -0.097896 2.553161 -21.712419 5.989482 0.858889 39.040931 -5.853070 -12.444260 -6.287525 0.000000 0.000000 0.000000 3.405382 -0.984349 18.728197 2.793322 -1.345072 2.456650 -6.538357 5.635834 6.551712 11.209191 -5.503518 -16.733258 0.000000 0.000000 0.000000 -24.091882 -19.096840 8.744673 -39.381176 -17.296840 0.619324 15.328323 -40.278044 -4.051193 0.000000 0.000000 0.000000 22.016693 9.216837 3.759601 54.379474 6.749649 -2.608421 1.671075 38.648087 2.149846 0.000000 0.000000 0.000000 
-0.228459 0.926834 0.654026 -0.953191 -11.440269 1.325502 1.385869 -0.694677 -9.477082 1.878578 -0.617344 12.947570 5.902634 12.579139 -1.139900 0.000000 0.000000 0.000000 -0.450478 2.041394 -18.442340 4.822137 1.511704 40.771633 -7.143914 -16.338432 -4.932158 0.000000 0.000000 0.000000 3.469154 -0.923219 16.369205 2.402053 -1.155441 2.486602 -6.386905 6.994087 6.557866 11.405570 -5.249597 -17.905956 0.000000 0.000000 0.000000 -24.071107 -17.519329 7.268359 -39.678407 -14.665530 -0.043039 11.848955 -39.782912 -2.892104 0.000000 0.000000 0.000000 20.622943 8.235420 3.566941 54.948214 6.857167 -2.645623 0.838801 39.122789 2.055332 0.000000 0.000000 0.000000 
